<?xml version="1.0" encoding="UTF-8" standalone="no"?>
<svg
   xmlns:dc="http://purl.org/dc/elements/1.1/"
   xmlns:cc="http://creativecommons.org/ns#"
   xmlns:rdf="http://www.w3.org/1999/02/22-rdf-syntax-ns#"
   xmlns:svg="http://www.w3.org/2000/svg"
   xmlns="http://www.w3.org/2000/svg"
   viewBox="0 0 188.976 188.976"
   height="188.976"
   width="188.976"
   xml:space="preserve"
   id="svg2"
   version="1.1"><metadata
     id="metadata8"><rdf:RDF><cc:Work
         rdf:about=""><dc:format>image/svg+xml</dc:format><dc:type
           rdf:resource="http://purl.org/dc/dcmitype/StillImage" /></cc:Work></rdf:RDF></metadata><defs
     id="defs6" /><g
     transform="matrix(1.3333333,0,0,1.3333333,0,4.7244e-6)"
     id="g10"><g
       id="g12"><g
         id="g14"><path
           id="path16"
           style="fill:none;stroke:#10426c;stroke-width:6;stroke-linecap:round;stroke-linejoin:round;stroke-miterlimit:10;stroke-dasharray:none;stroke-opacity:1"
           d="m 35.433,82.2047 v 35.4333 h 35.6118 l 2.71,-0.137 2.8163,-0.43 2.7223,-0.7 2.6101,-0.955 2.4816,-1.196 2.3383,-1.42 2.1812,-1.631 2.011,-1.828 1.8277,-2.011 1.6311,-2.181 1.4206,-2.338 1.1954,-2.482 0.9554,-2.6101 0.7,-2.7223 0.4297,-2.8163 0.1459,-2.8888 -0.1458,-2.8888 -0.4298,-2.8164 -0.7,-2.7223 -0.9553,-2.6102 -1.1955,-2.4816 -1.4206,-2.3383 -1.6311,-2.1812 -1.8277,-2.011 -2.011,-1.8278 -2.1812,-1.6311 -2.3383,-1.4205 -2.4816,-1.1954 -2.6101,-0.9553 -2.7223,-0.7 -2.8163,-0.4298 -2.71,-0.1369 H 35.4331 V 32.5985 h 42.5196" /></g><g
         id="g18"><path
           id="path20"
           style="fill:none;stroke:#fd0606;stroke-width:12;stroke-linecap:round;stroke-linejoin:round;stroke-miterlimit:10;stroke-dasharray:none;stroke-opacity:1"
           d="M 90.7086,32.5983 H 121.89" /></g><g
         id="g22"><path
           id="path24"
           style="fill:none;stroke:#fd0606;stroke-width:12;stroke-linecap:round;stroke-linejoin:round;stroke-miterlimit:10;stroke-dasharray:none;stroke-opacity:1"
           d="M 106.299,48.1889 V 17.0077" /></g></g></g></svg>